<svg xmlns="http://www.w3.org/2000/svg" width="48" height="48" fill="none" viewBox="0 0 48 48"><rect width="48" height="48" fill="#333" rx="24"/><path fill="#fff" d="M32.551 27.4557C31.8839 26.543 31.1683 25.8005 31.1683 24.1022V18.4647C31.1683 16.0753 31.3415 13.8819 29.561 12.2381 28.1595 10.9051 25.8313 10.4348 24.0508 10.4348 20.5685 10.4348 16.6838 11.7194 15.8691 15.9763 15.7829 16.4285 16.1149 16.6652 16.4159 16.7317L19.9618 17.1113C20.2939 17.0946 20.5337 16.7718 20.5979 16.4466 20.902 14.9797 22.144 14.275 23.5395 14.275 24.2921 14.275 25.1468 14.5473 25.5923 15.2149 26.1051 15.9582 26.0363 16.9797 26.0363 17.8379V18.3104C23.9155 18.5448 21.1411 18.7006 19.1548 19.5618 16.8638 20.5432 15.255 22.5401 15.255 25.4754 15.255 29.237 17.6489 31.1175 20.7311 31.1175 23.3323 31.1175 24.7558 30.5103 26.7625 28.487 27.4281 29.4412 27.6459 29.9009 28.8599 30.8997 29.1322 31.0434 29.4832 31.0297 29.7244 30.8136L29.7252 30.8128 29.7335 30.8218C30.4642 30.1792 31.7909 29.0389 32.5389 28.419 32.8377 28.1762 32.7847 27.7838 32.551 27.4557zM25.3518 25.83C24.771 26.8508 23.8459 27.4753 22.818 27.4753 21.4164 27.4753 20.5934 26.4167 20.5934 24.8508 20.5934 21.7681 23.3905 21.2086 26.0356 21.2086V21.9897H26.0363C26.0363 23.3998 26.0704 24.574 25.3518 25.83zM36.9242 33.6073C33.4216 36.1906 28.3422 37.5652 23.9677 37.5652 17.8391 37.5652 12.3187 35.3007 8.14148 31.5307 7.81382 31.2343 8.10628 30.8294 8.49993 31.0596 13.0074 33.6816 18.5806 35.2599 24.3366 35.2599 28.22 35.2599 32.4881 34.455 36.4153 32.7888 37.0077 32.5384 37.5042 33.18 36.9242 33.6073z"/><path fill="#fff" d="M38.3817 31.9432C37.9341 31.3705 35.4194 31.6718 34.2917 31.808C33.9486 31.8478 33.8959 31.5502 34.2041 31.3318C36.2093 29.9239 39.4952 30.3313 39.8774 30.802C40.2625 31.2791 39.7769 34.5717 37.8972 36.1425C37.608 36.3849 37.3334 36.2573 37.4612 35.9374C37.8839 34.8805 38.8311 32.5169 38.3817 31.9432Z"/></svg>